<?xml version="1.0" encoding="UTF-8" standalone="no"?>
<!-- Created with Inkscape (http://www.inkscape.org/) -->

<svg
   xmlns:dc="http://purl.org/dc/elements/1.1/"
   xmlns:cc="http://creativecommons.org/ns#"
   xmlns:rdf="http://www.w3.org/1999/02/22-rdf-syntax-ns#"
   xmlns:svg="http://www.w3.org/2000/svg"
   xmlns="http://www.w3.org/2000/svg"
   xmlns:xlink="http://www.w3.org/1999/xlink"
   version="1.1"
   width="120"
   height="120"
   id="svg3777">
  <defs
     id="defs3779">
    <linearGradient
       id="linearGradient3923">
      <stop
         id="stop3925"
         style="stop-color:#000000;stop-opacity:1"
         offset="0" />
      <stop
         id="stop3927"
         style="stop-color:#ff0f21;stop-opacity:1"
         offset="1" />
    </linearGradient>
    <linearGradient
       id="linearGradient34910">
      <stop
         id="stop34912"
         style="stop-color:#d0e9f2;stop-opacity:0"
         offset="0" />
      <stop
         id="stop34914"
         style="stop-color:#d0e9f2;stop-opacity:0.47450981"
         offset="1" />
    </linearGradient>
    <path
       d="m -739.91,26.75 c 12.057,97.116 39.088,136.432 75.023,179.214 63.674,78.07 176.124,141.611 267.812,168.91 h 794.15 c 91.688,-27.299 204.138,-90.84 267.812,-168.91 35.935,-42.782 62.966,-82.098 75.023,-179.214 v -53.5 c -12.057,-97.116 -39.088,-136.432 -75.023,-179.214 -63.674,-78.07 -176.124,-141.611 -267.812,-168.91 h -794.15 c -91.688,27.299 -204.138,90.84 -267.812,168.91 -35.935,42.782 -62.966,82.098 -75.023,179.214 z"
       transform="translate(749.5,386.931)"
       id="Frame" />
    <clipPath
       id="clip0">
      <use
         id="use10"
         x="0"
         y="0"
         width="2045"
         height="1720"
         xlink:href="#Frame" />
    </clipPath>
    <style
       type="text/css"
       id="style6789-8" />
    <g
       id="s">
      <g
         id="c">
        <path
           d="M 0,0 V 1 H 0.5 z"
           transform="matrix(0.95105652,0.30901699,-0.30901699,0.95105652,0,-1)"
           id="t" />
        <use
           transform="scale(-1,1)"
           id="use9"
           x="0"
           y="0"
           width="2045"
           height="1720"
           xlink:href="#t" />
      </g>
      <g
         id="a">
        <use
           transform="matrix(0.30901699,0.95105652,-0.95105652,0.30901699,0,0)"
           id="use12"
           x="0"
           y="0"
           width="2045"
           height="1720"
           xlink:href="#c" />
        <use
           transform="matrix(-0.80901699,0.58778525,-0.58778525,-0.80901699,0,0)"
           id="use14"
           x="0"
           y="0"
           width="2045"
           height="1720"
           xlink:href="#c" />
      </g>
      <use
         transform="scale(-1,1)"
         id="use16"
         x="0"
         y="0"
         width="2045"
         height="1720"
         xlink:href="#a" />
    </g>
    <style
       type="text/css"
       id="style6789-9" />
    <style
       type="text/css"
       id="style6789" />
    <radialGradient
       cx="272.20831"
       cy="275.00369"
       r="396.54739"
       id="Shadow_Sea_1_-6"
       gradientUnits="userSpaceOnUse"
       gradientTransform="matrix(0.69513411,0,0,0.69499014,-39.894723,206.84105)">
      <stop
         id="stop11-1-9"
         style="stop-color:#b2e0f6;stop-opacity:1"
         offset="0.64289999" />
      <stop
         id="stop13-8-1"
         style="stop-color:#b0def5;stop-opacity:1"
         offset="0.7859" />
      <stop
         id="stop15-3-4"
         style="stop-color:#a9d9ef;stop-opacity:1"
         offset="0.83740002" />
      <stop
         id="stop17-3-1"
         style="stop-color:#9ecfe6;stop-opacity:1"
         offset="0.87419999" />
      <stop
         id="stop19-0-4"
         style="stop-color:#8dc1d9;stop-opacity:1"
         offset="0.90390003" />
      <stop
         id="stop21-5-6"
         style="stop-color:#77afc8;stop-opacity:1"
         offset="0.92930001" />
      <stop
         id="stop23-6-1"
         style="stop-color:#5b98b2;stop-opacity:1"
         offset="0.95190001" />
      <stop
         id="stop25-5-0"
         style="stop-color:#3b7e99;stop-opacity:1"
         offset="0.97219998" />
      <stop
         id="stop27-0-2"
         style="stop-color:#17607d;stop-opacity:1"
         offset="0.9903" />
      <stop
         id="stop29-5-4"
         style="stop-color:#004d6b;stop-opacity:1"
         offset="1" />
    </radialGradient>
    <radialGradient
       cx="272.20831"
       cy="275.00369"
       r="396.54739"
       id="Shadow_land_1_-0"
       gradientUnits="userSpaceOnUse"
       gradientTransform="matrix(0.6951341,0,0,0.69499013,-39.894723,206.84105)">
      <stop
         id="stop34-4"
         style="stop-color:#fdfbe5;stop-opacity:1"
         offset="0.74730003" />
      <stop
         id="stop36-3"
         style="stop-color:#fbf9e3;stop-opacity:1"
         offset="0.85159999" />
      <stop
         id="stop38-1"
         style="stop-color:#f4f2de;stop-opacity:1"
         offset="0.88919997" />
      <stop
         id="stop40-7"
         style="stop-color:#e9e7d4;stop-opacity:1"
         offset="0.91600001" />
      <stop
         id="stop42-9"
         style="stop-color:#d8d6c5;stop-opacity:1"
         offset="0.93769997" />
      <stop
         id="stop44-4"
         style="stop-color:#c2c0b3;stop-opacity:1"
         offset="0.9562" />
      <stop
         id="stop46-7"
         style="stop-color:#a6a69c;stop-opacity:1"
         offset="0.9727" />
      <stop
         id="stop48-0"
         style="stop-color:#878782;stop-opacity:1"
         offset="0.98720002" />
      <stop
         id="stop50-1"
         style="stop-color:#646464;stop-opacity:1"
         offset="1" />
    </radialGradient>
    <radialGradient
       cx="276.5"
       cy="276.5"
       r="275"
       fx="345.25"
       fy="207.75"
       id="grSea-9"
       gradientUnits="userSpaceOnUse">
      <stop
         id="sEdge-1"
         style="stop-color:#ffffff;stop-opacity:0"
         offset="0" />
      <stop
         id="sMid-9"
         style="stop-color:#808080;stop-opacity:0.0625"
         offset="0.70710677" />
      <stop
         id="sCentre-3"
         style="stop-color:#000000;stop-opacity:0.25"
         offset="1" />
    </radialGradient>
    <radialGradient
       cx="276.5"
       cy="276.5"
       r="275"
       fx="345.25"
       fy="207.75"
       id="grSea-1"
       gradientUnits="userSpaceOnUse">
      <stop
         id="sEdge-5"
         style="stop-color:#ffffff;stop-opacity:0"
         offset="0" />
      <stop
         id="sMid-2"
         style="stop-color:#808080;stop-opacity:0.0625"
         offset="0.70710677" />
      <stop
         id="sCentre-2"
         style="stop-color:#000000;stop-opacity:0.25"
         offset="1" />
    </radialGradient>
    <radialGradient
       cx="265.10001"
       cy="189.75"
       r="349.79999"
       fx="265.10001"
       fy="189.75"
       id="radialGradient4130-1"
       gradientUnits="userSpaceOnUse">
      <stop
         id="stop11"
         style="stop-color:#000000;stop-opacity:0"
         offset="0" />
      <stop
         id="stop13"
         style="stop-color:#000000;stop-opacity:0.023"
         offset="0.49000001" />
      <stop
         id="stop15"
         style="stop-color:#000000;stop-opacity:0.035"
         offset="0.56999999" />
      <stop
         id="stop17"
         style="stop-color:#000000;stop-opacity:0.067"
         offset="0.63999999" />
      <stop
         id="stop19"
         style="stop-color:#000000;stop-opacity:0.149"
         offset="0.69999999" />
      <stop
         id="stop21"
         style="stop-color:#000000;stop-opacity:0.213"
         offset="0.73000002" />
      <stop
         id="stop23"
         style="stop-color:#000000;stop-opacity:0.546"
         offset="1" />
    </radialGradient>
    <radialGradient
       cx="265.10001"
       cy="189.75"
       r="349.79999"
       fx="265.10001"
       fy="189.75"
       id="radialGradient4130-1-7"
       gradientUnits="userSpaceOnUse">
      <stop
         id="stop11-5"
         style="stop-color:#000000;stop-opacity:0"
         offset="0" />
      <stop
         id="stop13-5"
         style="stop-color:#000000;stop-opacity:0.023"
         offset="0.49000001" />
      <stop
         id="stop15-6"
         style="stop-color:#000000;stop-opacity:0.035"
         offset="0.56999999" />
      <stop
         id="stop17-4"
         style="stop-color:#000000;stop-opacity:0.067"
         offset="0.63999999" />
      <stop
         id="stop19-1"
         style="stop-color:#000000;stop-opacity:0.149"
         offset="0.69999999" />
      <stop
         id="stop21-1"
         style="stop-color:#000000;stop-opacity:0.213"
         offset="0.73000002" />
      <stop
         id="stop23-0"
         style="stop-color:#000000;stop-opacity:0.546"
         offset="1" />
    </radialGradient>
    <radialGradient
       cx="276.5"
       cy="276.5"
       r="275"
       fx="345.25"
       fy="207.75"
       id="grSea"
       gradientUnits="userSpaceOnUse">
      <stop
         id="sEdge"
         style="stop-color:#ffffff;stop-opacity:0"
         offset="0" />
      <stop
         id="sMid"
         style="stop-color:#808080;stop-opacity:0.0625"
         offset="0.70710677" />
      <stop
         id="sCentre"
         style="stop-color:#000000;stop-opacity:0.25"
         offset="1" />
    </radialGradient>
    <radialGradient
       cx="272.20831"
       cy="275.00369"
       r="396.54739"
       id="Shadow_land_1_"
       gradientUnits="userSpaceOnUse"
       gradientTransform="matrix(0.6951341,0,0,0.69499013,-39.894723,206.84105)">
      <stop
         id="stop34"
         style="stop-color:#fdfbe5;stop-opacity:1"
         offset="0.74730003" />
      <stop
         id="stop36"
         style="stop-color:#fbf9e3;stop-opacity:1"
         offset="0.85159999" />
      <stop
         id="stop38"
         style="stop-color:#f4f2de;stop-opacity:1"
         offset="0.88919997" />
      <stop
         id="stop40"
         style="stop-color:#e9e7d4;stop-opacity:1"
         offset="0.91600001" />
      <stop
         id="stop42"
         style="stop-color:#d8d6c5;stop-opacity:1"
         offset="0.93769997" />
      <stop
         id="stop44"
         style="stop-color:#c2c0b3;stop-opacity:1"
         offset="0.9562" />
      <stop
         id="stop46"
         style="stop-color:#a6a69c;stop-opacity:1"
         offset="0.9727" />
      <stop
         id="stop48"
         style="stop-color:#878782;stop-opacity:1"
         offset="0.98720002" />
      <stop
         id="stop50"
         style="stop-color:#646464;stop-opacity:1"
         offset="1" />
    </radialGradient>
    <radialGradient
       cx="272.20831"
       cy="275.00369"
       r="396.54739"
       id="Shadow_Sea_1_"
       gradientUnits="userSpaceOnUse"
       gradientTransform="matrix(0.69513411,0,0,0.69499014,-39.894723,206.84105)">
      <stop
         id="stop11-1"
         style="stop-color:#b2e0f6;stop-opacity:1"
         offset="0.64289999" />
      <stop
         id="stop13-8"
         style="stop-color:#b0def5;stop-opacity:1"
         offset="0.7859" />
      <stop
         id="stop15-3"
         style="stop-color:#a9d9ef;stop-opacity:1"
         offset="0.83740002" />
      <stop
         id="stop17-3"
         style="stop-color:#9ecfe6;stop-opacity:1"
         offset="0.87419999" />
      <stop
         id="stop19-0"
         style="stop-color:#8dc1d9;stop-opacity:1"
         offset="0.90390003" />
      <stop
         id="stop21-5"
         style="stop-color:#77afc8;stop-opacity:1"
         offset="0.92930001" />
      <stop
         id="stop23-6"
         style="stop-color:#5b98b2;stop-opacity:1"
         offset="0.95190001" />
      <stop
         id="stop25-5"
         style="stop-color:#3b7e99;stop-opacity:1"
         offset="0.97219998" />
      <stop
         id="stop27-0"
         style="stop-color:#17607d;stop-opacity:1"
         offset="0.9903" />
      <stop
         id="stop29-5"
         style="stop-color:#004d6b;stop-opacity:1"
         offset="1" />
    </radialGradient>
    <radialGradient
       cx="174.27875"
       cy="85.472374"
       r="66.816254"
       fx="174.27875"
       fy="85.472374"
       id="radialGradient34916"
       xlink:href="#linearGradient34910"
       gradientUnits="userSpaceOnUse"
       gradientTransform="matrix(1,0,0,0.99998316,0,0.00144078)" />
    <radialGradient
       cx="174.27875"
       cy="85.472374"
       r="66.816254"
       fx="174.27875"
       fy="85.472374"
       id="radialGradient3920"
       xlink:href="#linearGradient34910"
       gradientUnits="userSpaceOnUse"
       gradientTransform="matrix(0.51091006,0,0,0.51090146,-4.59819,0.73261611)" />
    <radialGradient
       cx="174.27875"
       cy="85.472374"
       r="66.816254"
       fx="174.27875"
       fy="85.472374"
       id="radialGradient3966"
       xlink:href="#linearGradient34910"
       gradientUnits="userSpaceOnUse"
       gradientTransform="matrix(0.51091006,0,0,0.51090146,-4.59819,0.73261611)" />
    <radialGradient
       cx="174.27875"
       cy="85.472374"
       r="66.816254"
       fx="174.27875"
       fy="85.472374"
       id="radialGradient4101"
       xlink:href="#linearGradient34910"
       gradientUnits="userSpaceOnUse"
       gradientTransform="matrix(0.51091006,0,0,0.51090146,-4.59819,0.73261611)" />
  </defs>
  <metadata
     id="metadata3782">
    <rdf:RDF>
      <cc:Work
         rdf:about="">
        <dc:format>image/svg+xml</dc:format>
        <dc:type
           rdf:resource="http://purl.org/dc/dcmitype/StillImage" />
        <dc:title></dc:title>
      </cc:Work>
    </rdf:RDF>
  </metadata>
  <style
     type="text/css"
     id="mapStyle" />
  <style
     type="text/css"
     id="mapStyle-9" />
  <style
     type="text/css"
     id="mapStyle-3" />
  <style
     type="text/css"
     id="mapStyle-1" />
  <style
     type="text/css"
     id="mapStyle-30" />
  <style
     type="text/css"
     id="mapStyle-8" />
  <style
     type="text/css"
     id="mapStyle-98" />
  <style
     type="text/css"
     id="mapStyle-0" />
  <style
     type="text/css"
     id="mapStyle-8-8" />
  <style
     type="text/css"
     id="mapStyle-3-4" />
  <style
     type="text/css"
     id="mapStyle-4" />
  <style
     type="text/css"
     id="mapStyle-46" />
  <style
     type="text/css"
     id="mapStyle-6" />
  <style
     type="text/css"
     id="mapStyle-31" />
  <g
     id="g4103">
    <g
       transform="matrix(0.51091006,0,0,0.51091006,-4.59819,0.73188)"
       id="layer4-0">
      <path
         d="m 9,2.25 c 0,0 7.5,13 11.75,27.75 C 25,44.75 27,55.5 27,55.5 c 0,0 -5.5,12.75 -8.25,24.75 -2.75,12 -5.75,23 -5.75,23 0,0 5.75,16 9.25,30 3.5,14 3.75,24.25 3.75,24.25 0,0 -4,10.25 -7.5,24.25 -3.5,14 -5,30.75 -5,30.75 0,0 9.25,-2 28.5,1.25 19.25,3.25 32.25,6 32.25,6 0,0 12.75,-2.75 24,-6.25 11.25,-3.5 16.25,-6.5 16.25,-6.5 0,0 5.5,0.5 22.5,6.25 17,5.75 29.25,8.5 29.25,8.5 0,0 13,-2.75 26,-5.75 13,-3 26.5,-8 26.5,-8 0,0 -0.75,-5 4.25,-24.5 5,-19.5 8.75,-28 8.75,-28 0,0 -0.5,-4.5 -3.75,-19.75 C 224.75,120.5 218,106 218,106 c 0,0 1.75,-10.5 6.75,-23.75 C 229.75,69 235,55.5 235,55.5 c 0,0 -4.75,-15.25 -7.5,-29.75 C 224.75,11.25 219.25,0 219.25,0 c 0,0 -24.25,9 -31.75,10.5 -7.5,1.5 -21,5.25 -21,5.25 0,0 -9.75,-4.25 -22,-8.5 -12.25,-4.25 -29.75,-5.5 -29.75,-5.5 0,0 -3.25,3.5 -22,8 -18.75,4.5 -27.5,5.75 -27.5,5.75 0,0 -18.5,-9 -31.5,-11.5 C 20.75,1.5 9.75,2 9,2.25 z"
         id="path3834-9-6"
         style="fill:#ceeeab;stroke-width:0.25;stroke-linejoin:bevel" />
      <path
         d="m 114.7648,1.7452375 c 0,0 -1.68298,1.6318 -8.62873,4.10317 -0.88479,6.8544905 -2.72846,10.7705505 -8.145991,13.1542705 -6.250004,2.74999 -12.232018,3.48225 -10.982009,7.482254 1.250008,4 12.990398,9.28359 14.24041,13.03359 1.25001,3.75001 8.23201,1.74952 10.98201,6.99952 2.74999,5.25001 2.00887,15.257464 -3.74113,17.257454 -5.74999,1.99999 -17.464144,0.47349 -20.214136,9.47349 -2.749991,8.99999 -4.801112,10.48188 -9.051106,12.73189 -4.249994,2.25 -7.249767,10.53336 -3.499761,16.533354 3.750006,5.99999 12.274845,-1.26679 15.024836,-6.516794 2.749992,-5.25001 7.240886,-8.74941 7.240886,-8.74941 l 23.774241,0 59.01321,-1.74988 3.19806,-3.74112 c 0,0 3.27568,3.9994 2.77567,8.7494 -0.50001,4.75 -3.75864,14.757454 0.24136,17.257444 4.00001,2.5 19.5156,-1.99952 24.01561,-6.99952 4.5,-4.999994 -4.74929,-28.256604 -10.49929,-29.506614 -5.74999,-1.25 -18.51608,-1.74951 -17.01608,-6.99952 1.50001,-5.250014 11.75744,4.50841 17.25745,3.2584 5.5,-1.25001 16.7578,-21.032764 12.0078,-25.282764 -4.75,-4.24999 -24.26548,-5.21498 -25.76549,-7.96497 -1.5,-2.74999 21.01572,-8.04234 22.26573,-11.04235 1.25001,-3.000004 -2.52543,-7.197694 -6.27544,-8.447704 -3.75,-1.25001 -13.99856,16.248934 -20.99856,15.748934 -7.00001,-0.50001 -20.00744,5.71473 -17.25745,11.46473 2.74999,5.75 -5.98176,11.0168 -14.48177,6.5168 -8.5,-4.50001 -24.72266,-13.0156 -21.72265,-24.0156 2.11163,-7.742654 11.76462,-13.821734 17.37812,-16.7747245 -0.48452,-0.17079 -0.89474,-0.31165 -1.38783,-0.48273 -12.25,-4.24999 -29.74797,-5.491 -29.74797,-5.491 z M 97.205649,102.69525 c -1.595002,0.15 -4.478941,4.71986 -4.947938,7.05987 -0.500007,2.5 -3.249767,6.74916 -3.499761,12.24916 -0.249994,5.5 4.749403,6.76679 8.749403,6.5168 3.999997,-0.25 2.741247,-6.77484 1.991243,-15.02484 -0.249994,0 -0.491241,-10.24064 -1.991243,-10.74064 -0.094,-0.03 -0.195697,-0.0703 -0.301704,-0.0603 z m 92.683331,51.71199 c -6.34,0.29 -6.58156,7.46008 -7.36157,8.87009 -1.25001,2.25 2.24124,13.73153 1.99125,17.98153 -0.25,4.24999 -4.78383,5.21484 -9.53384,9.71485 -4.30767,4.08097 -0.33692,13.98779 8.4477,26.9723 3.00897,-0.67149 5.60624,-1.19164 8.80975,-1.9309 12.99999,-3.00001 26.48957,-8.02532 26.48957,-8.02532 0,0 -0.71581,-4.99833 4.28419,-24.49833 0.53685,-2.09369 1.06393,-4.00988 1.56886,-5.85304 -3.16126,-3.42693 -7.95561,-7.85588 -15.32654,-13.637 -9.56,-7.5 -15.56937,-9.77418 -19.36937,-9.59418 z M 39.942316,170.88026 c -4.030006,-0.11001 -8.308848,5.72292 -9.714854,7.60293 -1.271306,1.69508 -5.117201,4.16679 -12.73189,7.60292 -2.787045,12.90492 -3.982487,26.42924 -3.982487,26.42924 0,0 9.230816,-2.04319 28.480815,1.20681 3.179811,0.53685 5.880758,1.06943 8.689062,1.56886 -0.679716,-1.71939 -1.682472,-3.32571 -3.198057,-4.52556 -5.999991,-4.75 -17.222899,-5.77496 -18.222894,-13.27495 -0.999996,-7.49999 9.257674,-9.99041 13.757681,-14.24041 4.500008,-4.24999 1.957048,-11.24917 -2.292947,-12.24916 -0.266001,-0.06 -0.51642,-0.12068 -0.784429,-0.12068 z"
         id="path5436-4"
         style="fill:#a6dd8b;stroke-width:0.25;stroke-linejoin:bevel" />
      <path
         d="m 158.53,75.344 c -4.76,-0.015 -9.03,0.968 -11.53,3.156 -8,7 -35,0.75 -48.5,7 -13.5,6.25 -13.25,38 -14.75,44.5 -1.5,6.5 -17.5,20.75 -20,23.5 -2.5,2.75 -13.25,7.25 -19.5,8.5 -6.25,1.25 -12.75,7.25 -15.5,11 -2.021,2.76 -7.406,6.45 -10.125,8.22 -0.046,0.18 -0.079,0.35 -0.125,0.53 -0.134,0.53 -0.247,1.08 -0.375,1.63 4.98,-1.61 11.18,-8.18 16.625,-13.63 6.25,-6.25 20,-7.75 27.75,-11.5 7.75,-3.75 14.25,-19.75 26.5,-23.75 12.25,-4 21.25,11.75 24.25,18.5 3,6.75 1.75,12.75 3.75,17 2,4.25 11,11.75 11.5,13.5 0.5,1.75 -5,6.5 -6.25,8.5 -1.25,2 -10.5,7 -11.75,8.75 -0.97,1.35 -1.92,6.77 -2.31,9.22 0.41,-0.17 0.75,-0.31 1.12,-0.47 0.49,-2.53 1.52,-7.08 2.94,-8.5 2,-2 11.25,-4.5 12.5,-8.5 1.25,-4 7,-6.5 7,-6.5 0,0 2.75,4 16,14 8.83,6.67 12.76,15.53 14.41,20.72 0.67,0.17 1.53,0.41 2.03,0.53 -1.22,-4.32 -4.84,-16.24 -8.94,-20.75 -5,-5.5 -18.5,-10.75 -22.75,-22 -4.25,-11.25 -24.5,-34.25 -17.5,-40.25 7,-6 16.5,-4 28.5,7.5 12,11.5 46.25,5.75 57.75,3.75 9.95,-1.73 20.83,14.88 23.91,26.03 0.59,-2.09 1.12,-4 1.65,-5.75 -1.74,-1.92 -3.69,-4.62 -5.31,-8.28 -3.75,-8.5 -12,-13.25 -12,-13.25 0,0 8.75,-5 14.75,-7.75 1.62,-0.74 3.01,-1.68 4.19,-2.66 -0.16,-0.77 -0.26,-1.25 -0.44,-2.09 -0.03,-0.15 -0.06,-0.29 -0.09,-0.44 -4.77,5.56 -19.24,9.62 -21.66,10.94 -2.75,1.5 -18.25,3 -35.75,4.5 -17.5,1.5 -26.75,-7.5 -34.25,-14.75 -7.5,-7.25 -13,-36 -3,-38 10,-2 20,13.75 30,17 10,3.25 21.5,-15.75 19.75,-27 -1.2,-7.734 -14,-12.625 -24.47,-12.656 z m -53.34,13.281 c 1.27,0.001 5.86,1.594 6.56,2.375 2.25,2.5 2,7.25 0,8 -2,0.75 -12.75,8 -10.5,14.25 2.25,6.25 1.75,18 -3.5,18 -5.25,0 -8,0 -10,-2.5 -2,-2.5 -2,-12 0,-19.75 2,-7.75 3.5,-15 8,-18.25 3.094,-2.234 6.63,-2.128 9.44,-2.125 z m 13.59,73.095 c 0.2,0.01 1.91,3.51 4.72,7.03 3,3.75 3.25,8.25 3.25,8.25 0,0 -4.25,-4.75 -6,-8 -1.75,-3.25 -2,-7.25 -2,-7.25 0,-0.03 0.02,-0.03 0.03,-0.03 z"
         id="path5280-9"
         style="fill:#aac3e7;stroke-width:0.25;stroke-linejoin:bevel" />
      <path
         d="M 122.75,62.25 C 129,62.75 135,60 133.5,55.75 132,51.5 121,48.5 120.25,52.75 c -0.75,4.25 2,10.5 2.5,9.5 z"
         id="path5319-89"
         style="opacity:0.38696002;fill:none;stroke:#6d7f42;stroke-width:0.25;stroke-linecap:round;stroke-linejoin:round" />
      <path
         d="m 108.75,46.75 c -8.5,-5.5 -8.5,-7.25 -7,-8 1.5,-0.75 10.25,5 12.75,8 2.5,3 -2.25,2 -5.75,0 z"
         id="path5321-06"
         style="opacity:0.38696002;fill:none;stroke:#6d7f42;stroke-width:0.25;stroke-linecap:round;stroke-linejoin:round" />
      <path
         d="m 124.78135,2.8917075 c -5.7566,2.10153 -12.42037,5.05881 -16.35233,8.9907605 -3.97955,3.97954 -5.88665,9.36421 -7.48225,14.119734 -1.595598,4.75552 -2.944565,8.84919 -5.43066,10.31826 -1.239312,0.73231 -3.765241,1.36339 -6.878841,1.9309 -3.1136,0.56751 -6.842984,1.09204 -10.680306,1.74988 -7.674643,1.31566 -15.729404,3.09679 -20.033115,6.87884 -2.181785,1.91733 -3.896987,5.26776 -5.309983,9.35281 -1.412996,4.08506 -2.536221,8.932964 -3.258398,13.878374 -1.444373,9.89081 -1.476697,20.11622 -0.06034,25.52412 1.404211,5.361534 4.636426,10.420404 7.904633,14.662794 3.268207,4.24239 6.591252,7.68507 7.904633,9.71485 1.263486,1.95265 2.10003,6.0753 2.53431,10.0769 0.434279,4.00161 0.482397,7.96949 0.362044,9.65452 -0.06003,0.8404 -0.174109,1.4099 -0.482726,1.9309 -0.308616,0.52099 -0.836911,1.01509 -1.74988,1.56886 -1.825958,1.10754 -5.22232,2.3915 -11.223372,4.76691 -5.929474,2.34709 -10.758584,2.75438 -15.869607,2.41363 -4.086311,-0.27243 -8.380697,-1.02867 -13.455978,-1.56886 0.04406,0.33994 0.08146,0.7032 0.120682,1.0258 4.939905,0.53522 9.178874,1.23544 13.274956,1.50851 5.201465,0.34675 10.281805,-0.0107 16.352332,-2.41363 5.998948,-2.37458 9.357502,-3.68265 11.344053,-4.88759 0.993276,-0.60248 1.633621,-1.22533 2.051584,-1.93091 0.417964,-0.70557 0.598773,-1.44369 0.663748,-2.35328 0.129641,-1.81497 0.01834,-5.77466 -0.422385,-9.83554 -0.440709,-4.06088 -1.228807,-8.20193 -2.715332,-10.49928 -1.436611,-2.22023 -4.612502,-5.64042 -7.844292,-9.83554 -3.23179,-4.19512 -6.498511,-9.10195 -7.844292,-14.240414 -1.333655,-5.09211 -1.249603,-15.36539 0.181022,-25.16207 0.715322,-4.89835 1.753839,-9.696454 3.137717,-13.697344 1.383878,-4.00089 3.125417,-7.22276 5.068619,-8.93043 3.946283,-3.46796 11.912531,-5.26779 19.55039,-6.57713 3.81894,-0.65468 7.536101,-1.23713 10.680306,-1.81023 3.144205,-0.57309 5.669864,-1.1589 7.180544,-2.05158 3.013908,-1.78095 4.261154,-6.05651 5.853044,-10.80099 1.5919,-4.744484 3.47043,-9.987224 7.24089,-13.757684 3.76285,-3.7628505 10.48001,-6.8474005 16.23165,-8.9304205 0.5327,-0.19292 0.99503,-0.30669 1.50852,-0.48273 -0.69461,-0.10666 -1.39284,-0.20871 -2.05159,-0.3017 z m 15.74893,3.13771 c -7.18221,0.99981 -15.00904,3.10582 -19.85209,7.6029305 -5.3834,4.99888 -5.82699,10.976614 -4.64624,16.050634 1.18075,5.07403 3.93835,9.38985 4.76692,11.28371 0.52072,1.19025 1.73356,2.06974 3.2584,2.89636 1.52483,0.82662 3.37064,1.57266 5.24964,2.29295 1.879,0.72028 3.78823,1.44267 5.37032,2.17226 1.58209,0.72959 2.85358,1.48701 3.43942,2.23261 1.23954,1.5776 1.50944,4.09753 1.08613,6.63748 -0.42331,2.53994 -1.56088,5.065414 -2.83601,6.456454 -2.63186,2.87112 -6.89682,4.59151 -14.05939,4.34453 -3.41748,-0.11784 -6.67275,-2.42612 -9.89587,-5.37032 -3.22312,-2.944204 -6.39897,-6.505504 -9.83554,-9.051114 -3.516287,-2.60465 -8.006794,-3.04407 -12.852569,-2.47397 -4.845774,0.5701 -10.080065,2.18179 -15.32654,3.68079 -5.447038,1.5563 -8.442621,6.02412 -10.559624,10.921674 -2.117003,4.89754 -3.489971,10.30155 -5.551345,13.81802 -1.155066,1.97041 -1.351883,4.74508 -1.086133,8.02531 0.26575,3.28024 1.059873,7.04569 2.111925,10.86133 2.104085,7.631264 5.236473,15.513994 7.240885,20.274484 3.943849,9.36663 3.205202,19.04932 2.956695,21.78299 -0.117341,1.29066 -0.484734,2.08273 -1.387837,2.9567 -0.903102,0.87396 -2.398142,1.76388 -4.646234,3.13772 -4.445035,2.71641 -8.326014,3.92521 -17.559147,5.67202 -4.516902,0.85456 -8.516169,0.0605 -13.335296,-0.78443 -2.164368,-0.37946 -4.511265,-0.72324 -7.120204,-0.96545 0.04945,0.42324 0.01892,0.63645 0.06034,1.02579 2.483488,0.24166 4.771975,0.59607 6.878841,0.96546 4.805862,0.84258 8.964235,1.67988 13.697341,0.78442 9.266865,-1.75318 13.366229,-3.06945 17.92119,-5.85304 2.251916,-1.37618 3.732532,-2.31771 4.766916,-3.31874 0.123926,-0.11993 0.252659,-0.23878 0.362045,-0.36205 -0.439377,0.82913 -0.913897,1.61221 -1.327496,2.23261 -1.161824,1.74274 -3.459386,3.37126 -6.275434,4.8876 -2.816048,1.51633 -6.155544,2.95949 -9.292469,4.46521 -5.229811,2.51031 -14.019203,1.76925 -28.360133,8.20634 -0.155824,0.4598 -0.254687,0.82119 -0.422385,1.32749 14.657231,-6.76544 23.477672,-5.85069 29.265244,-8.62872 3.113078,-1.49429 6.421023,-2.9794 9.292469,-4.52555 2.871445,-1.54615 5.299304,-3.18203 6.637478,-5.1893 2.565416,-3.84814 5.853049,-11.55623 5.853049,-18.2229 0,-3.33975 -0.873966,-12.32679 -0.905111,-21.42095 -0.01556,-4.54708 0.170228,-9.094964 0.784429,-12.973254 0.614201,-3.8783 1.633969,-7.07188 3.198058,-8.80975 3.425518,-3.80611 7.779645,-10.26581 12.309505,-15.44722 2.264929,-2.59069 4.568496,-4.85496 6.8185,-6.27543 2.250003,-1.42047 4.388887,-2.018684 6.396117,-1.38784 4.27743,1.34433 7.28358,3.71195 10.49928,5.79271 3.21571,2.08076 6.64968,3.86922 11.64576,3.74112 4.93378,-0.12651 10.41473,-1.10291 15.02484,-3.13771 4.6101,-2.03481 8.34623,-5.15613 9.65451,-9.473494 0.68028,-2.24489 -0.0389,-4.45344 -1.44818,-6.5168 -1.40923,-2.06336 -3.46361,-4.04517 -5.61168,-5.97373 -2.14807,-1.92857 -4.41914,-3.80608 -6.09442,-5.61169 -1.67527,-1.8056 -2.72079,-3.53218 -2.77567,-5.06862 -0.11991,-3.3572 1.18598,-6.76889 4.34453,-9.71485 3.15855,-2.94596 8.19889,-5.395524 15.50757,-6.758164 4.54793,-0.84792 8.4861,-2.24315 11.82677,-3.80147 -0.11508,-0.0498 -0.97477,-0.4184 -1.26715,-0.54306 -3.09109,1.36474 -6.66262,2.61877 -10.74065,3.37908 -7.44131,1.38735 -12.70918,3.88297 -16.05063,6.999524 -3.34144,3.11655 -4.77633,6.85648 -4.64623,10.49928 0.0701,1.96356 1.33858,3.79795 3.07738,5.67203 1.73879,1.87408 3.96124,3.81718 6.09441,5.73237 2.13316,1.91518 4.234,3.80355 5.55134,5.73237 1.31734,1.92881 1.89723,3.7919 1.3275,5.67202 -1.19172,3.932634 -4.65906,6.844554 -9.11145,8.809754 -4.45239,1.96519 -9.84658,2.95389 -14.66279,3.07737 -4.75392,0.1219 -7.94341,-1.45551 -11.10269,-3.49976 -3.15929,-2.04425 -6.26808,-4.50771 -10.74065,-5.913394 -2.36777,-0.74415 -4.850272,-0.0611 -7.240884,1.448184 -2.390612,1.50923 -4.762282,3.8284 -7.059863,6.45645 -4.595143,5.25609 -8.924671,11.75335 -12.249164,15.44723 -1.810897,2.01211 -2.811433,5.32701 -3.43942,9.29246 -0.627988,3.96546 -0.860449,8.576364 -0.84477,13.154284 0.03136,9.15584 0.905111,18.2607 0.905111,21.42095 0,4.2069 -1.409308,8.95636 -3.077377,12.79223 0.0314,-0.1811 0.04279,-0.35007 0.06034,-0.54306 0.251481,-2.76633 1.039115,-12.57202 -3.017035,-22.20539 -1.995588,-4.73951 -5.097139,-12.59755 -7.180545,-20.153794 -1.041702,-3.77812 -1.854246,-7.49961 -2.111925,-10.68031 -0.257679,-3.1807 0.05586,-5.82766 1.025792,-7.48225 2.188621,-3.73353 3.480858,-9.14875 5.551346,-13.9387 2.070487,-4.789954 4.842916,-8.934904 9.895876,-10.378604 5.253523,-1.50101 10.489146,-3.0052 15.205859,-3.5601 4.716712,-0.55491 8.83442,-0.1024 12.068139,2.29294 3.31343,2.45441 6.55866,5.99748 9.83554,8.990774 3.27688,2.99328 6.66677,5.47953 10.49928,5.61168 7.33743,0.25301 12.03602,-1.57768 14.90416,-4.70657 1.47486,-1.60894 2.56536,-4.229124 3.01703,-6.939184 0.45168,-2.71006 0.2433,-5.49952 -1.26715,-7.42191 -0.78918,-1.0044 -2.16479,-1.77954 -3.80147,-2.53431 -1.63667,-0.75477 -3.55965,-1.51539 -5.43066,-2.23261 -1.87101,-0.71721 -3.68503,-1.38949 -5.12896,-2.17226 -1.44393,-0.78277 -2.48175,-1.66421 -2.83601,-2.47397 -0.92143,-2.10613 -3.5145,-6.29957 -4.64624,-11.16303 -1.13174,-4.86346 -0.83241,-10.273724 4.28419,-15.024844 5.02581,-4.6668405 13.84415,-6.7429205 21.4813,-7.6029305 -0.75522,-0.23804 -1.51227,-0.50645 -2.29295,-0.72409 z m 52.25505,3.01704 c -0.51663,0.15412 -1.09088,0.34694 -1.56886,0.48273 9.59561,3.7497905 26.6644,7.7995505 37.65261,22.6881045 -0.16593,-0.74575 -0.3231,-1.48027 -0.48273,-2.2326 C 217.63798,16.721408 202.06958,12.491208 192.78533,9.0464575 z M 13.814789,105.5916 c 0.137982,0.39704 0.252523,0.77242 0.422385,1.26716 3.803338,1.4497 8.777729,2.53338 14.783474,2.11192 6.925028,-0.48597 12.028886,3.378 15.688584,8.20634 3.659698,4.82834 5.830033,10.66293 6.8185,13.99905 0.482127,1.62715 0.494775,2.70388 -0.120681,3.62044 -0.615456,0.91656 -1.981415,1.78429 -4.525553,2.47397 -4.168723,1.13008 -11.580493,1.90057 -23.110492,2.83601 0.0677,0.3438 0.117399,0.68951 0.181022,1.02579 11.468693,-0.93519 18.853682,-1.78639 23.170833,-2.95669 2.643347,-0.71658 4.291296,-1.52818 5.12896,-2.77568 0.837664,-1.24749 0.75925,-2.83804 0.241363,-4.58589 -1.011523,-3.41389 -3.221731,-9.31659 -6.999523,-14.30075 -3.777791,-4.98416 -9.208378,-9.02206 -16.533354,-8.50804 -6.288467,0.44129 -11.384873,-0.86466 -15.145518,-2.41363 z m 209.623621,14.18007 c -4.74587,0.7399 -15.85883,3.48412 -19.67107,13.51632 -1.10536,2.90887 -4.31222,5.22852 -8.68906,6.93918 -4.37684,1.71067 -9.84656,2.81091 -15.32654,3.62044 -5.47998,0.80954 -10.95293,1.33028 -15.32654,1.68954 -2.18681,0.17964 -4.10579,0.32743 -5.61169,0.48273 -1.50589,0.1553 -2.54809,0.25333 -3.19805,0.48273 -1.85467,0.65459 -4.61668,-0.24355 -7.05987,-1.38784 -1.2216,-0.57215 -2.35856,-1.20736 -3.31874,-1.6292 -0.4801,-0.21091 -0.93253,-0.38778 -1.32749,-0.48273 -0.39497,-0.095 -0.77512,-0.12533 -1.14648,0.0604 -0.34153,0.17076 -0.52008,0.62024 -0.48272,0.96545 0.0374,0.3452 0.1599,0.63642 0.36204,0.96545 0.4043,0.65803 1.0889,1.4015 1.81022,2.2326 1.44266,1.66218 3.12994,3.65744 3.56011,4.94794 0.0233,0.0699 0.0449,0.12995 0,0.24136 -0.0449,0.11142 -0.12652,0.24822 -0.30171,0.42239 -0.3504,0.34835 -1.00349,0.74216 -1.81022,1.14647 -1.61346,0.80863 -3.9926,1.64295 -6.57714,2.29295 -5.16906,1.3 -11.29904,1.94772 -14.18006,1.02579 -2.97064,-0.9506 -5.09784,-3.25208 -6.87884,-5.1893 -0.8905,-0.96862 -1.70406,-1.83719 -2.53431,-2.41363 -0.83025,-0.57643 -1.79142,-0.82401 -2.71533,-0.36204 -1.01087,0.50543 -1.40846,1.64733 -1.74989,3.01703 -0.34142,1.36971 -0.58257,2.97873 -0.96545,4.52556 -0.38288,1.54682 -0.90646,3.0286 -1.74988,4.04283 -0.84342,1.01422 -1.93167,1.62722 -3.74112,1.56885 -1.15833,-0.0374 -2.48691,0.49922 -3.98249,1.44818 -1.495579,0.94896 -3.227541,2.35167 -5.068618,3.98249 -3.682154,3.26166 -7.918593,7.66161 -12.369845,12.12848 -4.451252,4.46687 -9.103337,8.95389 -13.395638,12.55087 -4.2923,3.59698 -8.26909,6.22838 -11.344053,6.87884 -6.321756,1.3373 -13.783073,-0.71727 -22.0847,-1.6292 -6.72348,-0.73857 -14.022852,-0.70223 -21.662314,2.71533 -0.05627,0.39234 -0.06789,0.82706 -0.120682,1.20682 7.62807,-3.57468 14.858837,-3.70406 21.662315,-2.9567 8.198362,0.90057 15.708164,3.10225 22.386403,1.68954 3.425035,-0.72453 7.486264,-3.48281 11.826779,-7.1202 4.340515,-3.6374 8.94064,-8.20093 13.395638,-12.67155 4.454998,-4.47062 8.731677,-8.84543 12.369845,-12.06814 1.819084,-1.61136 3.528474,-2.96116 4.94794,-3.86181 1.41946,-0.90065 2.5999,-1.29228 3.37908,-1.26715 2.06554,0.0666 3.57775,-0.71857 4.58589,-1.93091 1.00815,-1.21233 1.53254,-2.79544 1.9309,-4.40487 0.39837,-1.60943 0.64282,-3.29155 0.96546,-4.58589 0.32263,-1.29434 0.77801,-2.16906 1.26715,-2.41363 0.57609,-0.28803 1.01199,-0.16872 1.68954,0.3017 0.67755,0.47043 1.46254,1.32406 2.35329,2.29295 1.78151,1.93778 4.02186,4.38126 7.30122,5.43066 3.36899,1.07806 9.45469,0.35956 14.72314,-0.96545 2.63421,-0.66249 5.0357,-1.49004 6.75816,-2.35329 0.86124,-0.43163 1.57092,-0.91001 2.05158,-1.38783 0.24032,-0.23891 0.42746,-0.43731 0.54307,-0.72409 0.1156,-0.28678 0.1621,-0.60001 0.0603,-0.90511 -0.56983,-1.70951 -2.36912,-3.59932 -3.80147,-5.24964 -0.71617,-0.82516 -1.35945,-1.63499 -1.68954,-2.17227 -0.15738,-0.25617 -0.22792,-0.46349 -0.24136,-0.54307 0.0237,-0.005 0.15017,-0.005 0.42239,0.0603 0.29156,0.0701 0.69296,0.22315 1.14647,0.42238 0.907,0.39848 2.07159,0.98474 3.31874,1.56886 2.4943,1.16821 5.38863,2.35392 7.78395,1.50852 0.41254,-0.14561 1.53074,-0.32943 3.01704,-0.48273 1.48629,-0.15329 3.36314,-0.30298 5.55134,-0.48272 4.37637,-0.3595 9.86686,-0.81374 15.38688,-1.6292 5.52003,-0.81546 11.06975,-1.98304 15.5679,-3.74113 4.49816,-1.75808 8.02285,-4.08077 9.29247,-7.4219 3.64234,-9.5851 14.52779,-12.27375 19.00733,-12.97326 -0.1063,-0.31242 -0.19562,-0.65956 -0.30171,-0.96545 z m 6.57714,25.82582 c -2.23757,0.5054 -2.98471,0.67684 -6.03407,1.38784 -3.01709,0.70347 -6.06358,1.39228 -8.4477,1.99124 -1.19206,0.29949 -2.24637,0.56671 -3.01703,0.78443 -0.38534,0.10887 -0.71299,0.27854 -0.96546,0.36205 -0.25246,0.0835 -0.37193,0.0783 -0.54306,0.18102 -0.45962,0.27577 -0.70816,0.78572 -0.78443,1.26716 -0.0763,0.48143 -0.0645,0.9761 0,1.50851 0.12906,1.0648 0.41049,2.26748 0.3017,3.13772 -0.0193,0.0295 -0.0594,0.015 -0.12068,0.0603 -0.16337,0.12097 -0.48402,0.24914 -0.84477,0.42239 -0.7215,0.34648 -1.7895,0.80678 -3.07738,1.26715 -2.57574,0.92073 -6.03635,1.99049 -9.71485,3.2584 -3.6785,1.26791 -7.58625,2.69201 -10.92167,4.22385 -3.33542,1.53184 -6.12675,3.15148 -7.72361,4.94794 -1.3759,1.5479 -4.46017,3.16003 -8.32702,4.58589 -3.86684,1.42586 -8.51205,2.68183 -13.15427,3.74112 -4.64222,1.0593 -9.27334,1.91345 -13.0336,2.47397 -3.76025,0.56053 -6.70782,0.84126 -7.84429,0.78443 -2.26919,-0.11346 -3.61959,-1.76884 -4.82725,-3.37908 -0.60384,-0.80513 -1.11456,-1.561 -1.74988,-2.11192 -0.31766,-0.27546 -0.74062,-0.50574 -1.14648,-0.60341 -0.40585,-0.0977 -0.83818,-0.0743 -1.26715,0.12068 -0.84132,0.38242 -1.33721,1.20321 -1.74988,2.11193 -0.41268,0.90872 -0.72782,1.9772 -1.0258,3.13771 -0.59593,2.32103 -1.2318,4.92299 -2.65499,6.93919 -1.40544,1.99103 -3.94815,3.50288 -6.8185,4.70657 -2.87034,1.20369 -6.03538,2.12679 -8.68906,3.13772 -1.43926,0.5483 -3.06645,1.81667 -4.94794,3.5601 -1.881488,1.74343 -4.0044,3.9844 -6.396113,6.5168 -3.292749,3.48643 -7.12588,7.47574 -11.344053,11.52507 0.596823,-0.14791 1.297683,-0.32223 1.930903,-0.48272 3.751551,-3.65742 7.17452,-7.2416 10.137239,-10.37861 2.38955,-2.5301 4.49072,-4.74677 6.335774,-6.45645 1.84506,-1.70968 3.46049,-2.92737 4.64624,-3.37908 2.59631,-0.98907 5.7469,-1.90391 8.68906,-3.13772 2.94215,-1.23381 5.64632,-2.74931 7.24088,-5.00828 1.5768,-2.2338 2.24446,-4.99725 2.83602,-7.30122 0.29577,-1.152 0.6047,-2.22265 0.96545,-3.01704 0.36075,-0.79439 0.73347,-1.26592 1.26715,-1.50852 0.25853,-0.11751 0.46904,-0.16758 0.66375,-0.12068 0.19471,0.0469 0.42281,0.21346 0.66375,0.42239 0.48185,0.41783 1.01428,1.17136 1.6292,1.99124 1.22983,1.63976 2.82054,3.60459 5.55134,3.74112 1.36353,0.0682 4.29902,-0.21996 8.08566,-0.78442 3.78663,-0.56447 8.42364,-1.40827 13.09393,-2.47397 4.67029,-1.06571 9.34493,-2.35233 13.27496,-3.80147 3.93002,-1.44914 7.06498,-3.00016 8.68906,-4.82726 1.40315,-1.57853 4.14014,-3.25971 7.42191,-4.76691 3.28176,-1.50721 7.13574,-2.90018 10.80098,-4.16351 3.66524,-1.26333 7.17126,-2.38793 9.7752,-3.31874 1.30197,-0.4654 2.35238,-0.89001 3.13772,-1.26715 0.39266,-0.18858 0.71389,-0.3568 0.96545,-0.54307 0.25155,-0.18627 0.49496,-0.33924 0.54306,-0.72409 0.14123,-1.12975 -0.12043,-2.38136 -0.24136,-3.37908 -0.0605,-0.49885 -0.10913,-0.95952 -0.0603,-1.26715 0.0487,-0.30763 0.13632,-0.3835 0.3017,-0.48273 -0.0149,0.009 0.19329,-0.10527 0.42239,-0.18102 0.2291,-0.0758 0.52823,-0.19523 0.90511,-0.3017 0.75375,-0.21294 1.76984,-0.48626 2.95669,-0.78443 2.37368,-0.59634 5.43354,-1.28848 8.4477,-1.99125 3.03202,-0.70694 3.75441,-0.88296 5.97373,-1.38783 -0.0717,-0.37255 -0.10261,-0.56417 -0.18102,-0.96546 z m -16.83506,33.18739 c -0.38681,-0.007 -0.75444,0.0291 -1.08613,0.0604 -0.6634,0.0623 -1.20703,0.15437 -1.6292,0.48272 -1.14423,0.88995 -1.96969,1.66297 -3.62044,2.35329 -1.65075,0.69032 -4.15347,1.31297 -8.62872,1.81022 -2.4861,0.27624 -4.96379,2.29957 -7.48225,5.24964 -2.51846,2.95007 -5.09392,6.88367 -7.66327,11.22337 -3.97588,6.71536 -7.98726,14.35478 -11.64576,20.63653 0.56406,-0.12138 0.65437,-0.0957 1.3275,-0.24137 3.5663,-6.1719 7.3666,-13.50017 11.16303,-19.91243 2.55565,-4.31655 5.15263,-8.17212 7.60293,-11.04235 2.45029,-2.87023 4.80461,-4.66383 6.8185,-4.8876 4.52474,-0.50275 7.08332,-1.12338 8.87008,-1.87056 1.78676,-0.74718 2.75604,-1.61393 3.86181,-2.47397 0.14034,-0.10915 0.57257,-0.24781 1.14647,-0.3017 0.5739,-0.0539 1.27982,-0.0631 2.11193,0 1.6642,0.12624 3.69852,0.45629 5.67202,0.84477 1.32435,0.26069 2.4251,0.52374 3.5601,0.78443 0.0865,-0.32969 0.15573,-0.64255 0.24137,-0.96545 -1.14958,-0.27149 -2.27285,-0.57951 -3.62044,-0.84477 -1.99525,-0.39277 -4.05847,-0.71322 -5.79271,-0.84477 -0.43357,-0.0329 -0.82,-0.053 -1.20682,-0.0604 z"
         id="path5329-41"
         style="font-size:medium;font-style:normal;font-variant:normal;font-weight:normal;font-stretch:normal;text-indent:0;text-align:start;text-decoration:none;line-height:normal;letter-spacing:normal;word-spacing:normal;text-transform:none;direction:ltr;block-progression:tb;writing-mode:lr-tb;text-anchor:start;baseline-shift:baseline;opacity:0.38696002;color:#000000;fill:#6d7f42;fill-opacity:1;stroke:none;stroke-width:1;marker:none;visibility:visible;display:inline;overflow:visible;enable-background:accumulate;font-family:Sans;-inkscape-font-specification:Sans" />
      <path
         d="m 56.234308,11.460088 -7.964974,26.489574 -0.241363,0.96545 0.905111,0.30171 17.498806,6.03407 7.482248,35.178634 -20.636523,21.903684 -0.603407,0.66375 0.603407,0.66375 8.387359,9.77519 -11.344054,10.86133 -0.362044,0.3017 0.06024,0.48273 0.482726,4.52555 0,0.3017 0.241363,0.24137 20.214137,24.49833 0.482726,0.6034 0.724088,-0.36204 13.455979,-6.45646 19.490057,17.55915 -10.31827,27.69638 -0.241362,0.66375 0.603407,0.42239 9.775195,8.08565 -1.9309,9.05111 c 0.75047,-0.26413 1.49954,-0.53314 2.17227,-0.78443 l 1.81022,-9.11145 12.06814,-26.79127 10.25792,-6.57714 26.9723,15.44722 0.3017,0.18093 0.36205,-0.0602 20.51584,-3.74112 0.78443,-0.18093 0,-0.78443 -0.24137,-15.80926 0,-0.54307 -0.48272,-0.24136 -9.47349,-5.55135 12.24916,-25.22241 5.24964,-3.43942 37.59226,-9.65452 c -0.23829,-0.67662 -0.43009,-1.29216 -0.66374,-1.9309 l -37.47159,9.65451 -0.18092,0.0602 -0.12068,0.0602 -5.73237,3.80156 -0.24136,0.12069 -0.12068,0.24136 -12.73189,26.24821 -0.42239,0.84477 0.78443,0.48272 9.7752,5.67203 0.24136,14.36109 -19.36937,3.5601 -27.15332,-15.5679 -0.48272,-0.36205 -0.54307,0.36205 -10.98201,6.99952 -0.24136,0.18092 -0.12068,0.24137 -12.0078,26.61025 -8.387367,-6.99952 10.197587,-27.57571 0.3017,-0.66374 -0.54307,-0.42239 -20.515842,-18.5246 -0.482725,-0.42238 -0.603407,0.3017 -13.274956,6.39612 -19.55039,-23.7139 -0.422385,-3.68079 11.645757,-11.16303 0.663747,-0.66374 -0.603407,-0.72409 -8.447699,-9.7752 20.39516,-21.601974 0.362044,-0.42239 -0.120681,-0.48272 -7.723611,-36.264774 -0.120682,-0.54307 -0.543066,-0.18092 -17.076421,-5.97373 7.60293,-25.282764 c -0.586724,-0.25355 -1.234195,-0.57651 -1.870562,-0.84477 z"
         id="path5389-6"
         style="font-size:medium;font-style:normal;font-variant:normal;font-weight:normal;font-stretch:normal;text-indent:0;text-align:start;text-decoration:none;line-height:normal;letter-spacing:normal;word-spacing:normal;text-transform:none;direction:ltr;block-progression:tb;writing-mode:lr-tb;text-anchor:start;baseline-shift:baseline;color:#000000;fill:#d38484;fill-opacity:1;stroke:none;stroke-width:2;marker:none;visibility:visible;display:inline;overflow:visible;enable-background:accumulate;font-family:Sans;-inkscape-font-specification:Sans" />
    </g>
    <path
       d="m 84.433367,10.255564 c -8.735959,-5e-5 -17.473502,3.353883 -24.138855,10.019319 -13.330706,13.330862 -13.330706,34.916331 0,48.246879 13.330706,13.330542 34.946999,13.330859 48.277708,0 13.3307,-13.330865 13.3307,-34.916333 0,-48.246879 -6.66536,-6.665278 -15.402899,-10.01927 -24.138853,-10.019319 z"
       id="path3834-9-1-0"
       style="fill:#ceeeab;stroke-width:0.25;stroke-linejoin:bevel" />
    <path
       d="m 86.560541,10.317221 c -0.250402,0.644916 -0.253069,1.306071 0.06166,1.973036 1.759763,3.729243 -3.840158,6.917757 -9.279434,3.884412 -1.634463,-0.911493 -3.703685,-2.062216 -5.764961,-3.421983 -4.109153,1.666327 -7.950619,4.189484 -11.283296,7.522197 -5.600172,5.600244 -8.846908,12.650698 -9.741859,19.946153 l 8.53954,0.24663 37.765128,-0.06166 2.065522,-2.34298 c 0,0 2.108019,2.641924 1.788069,5.672476 -0.31996,3.030553 -2.405524,9.364539 0.15414,11.036666 2.55966,1.672126 12.47306,-0.920364 15.35268,-4.038556 2.87961,-3.118195 -3.04114,-18.179064 -6.72065,-19.082951 -3.67951,-0.903886 -11.842399,-1.446017 -10.882527,-4.778444 0.959872,-3.332427 7.517137,3.074235 11.036667,2.373808 1.02389,-0.203765 2.3646,-1.38806 3.66861,-3.052039 -1.33019,-2.106719 -2.91177,-4.083285 -4.74761,-5.919106 -6.12313,-6.123058 -13.998976,-9.45951 -22.011681,-9.957662 z"
       id="path5436-7-2"
       style="fill:#a6dd8b;stroke-width:0.25;stroke-linejoin:bevel" />
    <path
       d="m 81.504635,33.500386 c -2.585456,0.06008 -4.858407,0.633334 -6.258221,1.818891 -3.985855,3.374976 -15.320545,1.424798 -24.231339,2.158008 -0.280271,1.359796 -0.472504,2.721072 -0.585744,4.100214 1.000054,0.363748 2.030958,0.823771 2.281322,1.109832 1.43981,1.64048 1.27983,4.673795 0,5.11756 -0.357791,0.124055 -1.167445,0.579934 -2.09635,1.233147 0.974707,7.128182 4.200445,14.004032 9.680204,19.483723 1.249754,1.24974 2.564376,2.40656 3.94607,3.421983 0.01226,0.0049 0.01856,0.02575 0.03083,0.03078 1.544491,0.642785 3.167772,1.624844 4.901759,2.959553 1.48001,0.739839 3.010661,1.369286 4.562644,1.880549 -2.012366,-1.566274 -3.758365,-3.304074 -5.364189,-4.901759 -4.799361,-4.775022 -8.310526,-23.255673 -1.911378,-24.354654 6.399148,-1.09898 12.807111,9.146035 19.206265,11.40661 6.399148,2.260576 13.75961,-9.694252 12.639756,-16.924943 -0.767897,-4.970805 -8.961061,-8.330352 -15.660967,-8.539543 -0.380749,-0.01194 -0.771309,-0.0089 -1.140661,0 z"
       id="path5280-4-6"
       style="fill:#aac3e7;stroke-width:0.25;stroke-linejoin:bevel" />
    <g
       id="g4037">
      <path
         d="m 84.433367,10.255564 c -8.735959,-5e-5 -17.473502,3.353883 -24.138855,10.019319 -13.330706,13.330862 -13.330706,34.916331 0,48.246879 13.330706,13.330542 34.946999,13.330859 48.277708,0 13.3307,-13.330865 13.3307,-34.916333 0,-48.246879 -6.66536,-6.665278 -15.402899,-10.01927 -24.138853,-10.019319 z"
         id="path34252"
         style="fill:#ceeeab;stroke-width:0.25;stroke-linejoin:bevel" />
      <path
         d="m 84.4375,10.25 c -8.735959,-5e-5 -17.490897,3.365814 -24.15625,10.03125 -13.330706,13.330862 -13.330706,34.919452 0,48.25 2.734048,2.734014 5.836869,4.887427 9.125,6.5 l 48.78125,-25.5625 c 1.55045,-10.335174 -1.66188,-21.224473 -9.625,-29.1875 C 101.89715,13.615972 93.173454,10.250049 84.4375,10.25 z"
         id="rect34281"
         style="fill:#aac3e7;fill-opacity:1;stroke:none" />
      <path
         d="m 87.40625,10.375 -1.34375,1.90625 -2.25,2.625 -1.09375,0.84375 -0.5625,0.34375 -0.90625,1.25 -0.71875,1.5625 -0.46875,0.71875 2.125,3 0.21875,0.8125 0.25,0.5 -2.25,0.09375 0.875,1 1.125,0.71875 0.78125,0.40625 0.40625,0.65625 -0.90625,0.25 -0.8125,-0.03125 -3,-2.71875 -1.71875,-0.5625 -2.46875,-0.09375 -0.625,0.15625 -0.71875,0.6875 0.8125,1.1875 0.75,0.78125 1.3125,0.15625 1.5625,0.96875 2.375,-0.46875 1.59375,1.03125 1.0625,0.34375 0.9375,0.625 0.875,0.15625 0.40625,-0.15625 -0.125,-1.28125 0.75,-0.59375 0.8125,-0.21875 0.28125,0.5625 0.6875,0.59375 0.59375,0.03125 L 89.6875,26.9375 90,27.25 l 0.3125,0.53125 0,0.40625 0.03125,0.40625 0.34375,0.21875 1.21875,0 0.6875,-0.71875 0.5,-0.40625 0.34375,0.34375 0.09375,0.90625 0.25,1.28125 1.34375,1.46875 1.1875,0.46875 L 97.84375,32 l 0.625,-0.21875 0.375,0.25 0.34375,0.71875 0.8125,0.90625 1.75,0.6875 0.59375,0.40625 0.3125,0.59375 -0.125,0.75 -1.03125,1.9375 -0.15625,0.5625 0.125,0.1875 -0.1875,0.375 -1.25,1.25 -0.125,0.46875 0.34375,0.8125 0.25,0.625 0.6875,0.34375 0.625,0.15625 1.21875,0.09375 1.3125,0.125 0.125,0.375 1.40625,1.1875 0.375,0.875 1.03125,0.875 -0.9375,1 0.0937,0.46875 0.28125,0.5 1.15625,0.34375 0.59375,0.71875 -0.0625,1 0.1875,1.75 -2.5625,1.5625 -0.78125,1.8125 -0.0937,0.375 -0.0937,-0.03125 -0.25,-0.625 -0.40625,-0.03125 -1.03125,-0.34375 -1.53125,1.65625 -0.6875,1.34375 -0.46875,1 -0.65625,0.84375 -0.15625,0.875 0.09375,0.375 -0.25,0.4375 -0.0625,0.53125 0.75,1.03125 0.1875,0.5625 0.875,1.875 -0.3125,0.625 -0.3125,0.6875 -0.34375,0.46875 -0.34375,0.28125 -1.0625,-0.09375 -1.3125,0.125 -0.9063,0.3125 L 96.4375,67.75 95.5,66.8125 l -0.96875,-1.40625 -0.625,-0.6875 -0.25,-0.5625 -0.8125,-0.25 L 91.6875,63.125 90.9375,62.375 90.25,61.84375 89.25,61.5625 88.4375,61.5 88.28125,60.34375 88.3125,58.9375 87.6875,57.96875 88.875,54.5 l -0.5,-0.375 -0.59375,0.1875 -0.9375,0.8125 -0.5,0.96875 L 86.03125,57 84.5,57.71875 l -2.3125,0.125 -2.46875,-0.53125 -0.3125,-0.25 -0.125,-0.28125 0,-0.28125 L 79.5,56 l 0.46875,-0.53125 0.1875,-0.84375 -0.375,-0.75 -0.25,-0.3125 L 79.6875,52.875 80.0625,52 80.1875,51.53125 78.625,49.875 77.4375,49.46875 76.25,49.3125 75.40625,49.03125 74.875,49.09375 74.4375,49.46875 74.0625,49.75 73.8125,49.34375 73.5,46.625 73.15625,46.21875 71.6875,45.59375 69.625,45.25 69.15625,44.6875 68.9375,43.46875 l -0.03125,-1.5 -0.5625,-1.4375 -0.28125,-0.375 -0.5625,-0.6875 -1.09375,0.125 -1.34375,0.6875 -0.8125,0.125 L 63.9375,40.5 63,39.59375 62,38.25 l -0.75,-1.40625 -0.1875,-0.75 0.375,-0.84375 -0.25,-0.71875 -0.375,-1.28125 -0.03125,-0.96875 -1.0625,0.5 -6.90625,0.78125 -0.875,0.375 c -3.792017,11.788394 -1.020665,25.229446 8.34375,34.59375 13.330706,13.330542 34.950544,13.330859 48.28125,0 13.33071,-13.330865 13.33071,-34.919454 0,-48.25 C 102.65157,14.370387 95.130176,11.047862 87.40625,10.375 z M 82.8125,28.5 l -1.46875,0.40625 -1.25,-0.8125 -1.625,0.6875 -2.0625,-0.46875 -1.59375,-0.75 L 72.75,27.46875 71.78125,27.6875 72,29.46875 l 0.21875,0.5625 0.3125,0.4375 0.5,0.09375 0.625,-0.34375 0.8125,-0.40625 1.28125,0.3125 0.90625,0.53125 0.28125,0.4375 0.59375,0.5 0.875,0.1875 1.8125,-0.625 1.8125,-1.09375 0.53125,-0.78125 0.25,-0.78125 z M 78,20.75 76.8125,21 l 0,0.375 0.34375,0.6875 1.09375,-0.21875 1.53125,1.53125 1.59375,-0.3125 -0.03125,-0.375 -0.25,-0.375 -1.125,-1.25 L 78,20.75 z m 25.0625,16.21875 0.0312,0 -0.125,0.3125 0.0625,0.5 -0.0937,-0.5 0.125,-0.3125 z"
         id="polyF1S162P14"
         style="fill:#ceeeab;fill-opacity:1;stroke:none" />
      <path
         d="m 60.03125,53.53125 c -0.999288,1.945683 2.01023,5.531434 -2.5,11.875 0.84665,1.080402 1.75474,2.129753 2.75,3.125 11.83188,11.83173 30.20037,13.140059 43.5,3.96875 -0.64514,-0.872485 -0.44635,-2.038035 1.1875,-3.6875 3.74677,-3.782571 2.98954,-7.083426 1.6875,-9.6875 -3.49178,-6.983567 -26.009582,2.781606 -32.53125,1.46875 -4.354063,0.608554 -12.196917,-10.755765 -14.09375,-7.0625 z"
         id="path3970"
         style="fill:#a6dd8b;fill-opacity:1;stroke-width:0.25;stroke-linejoin:bevel" />
      <path
         d="m 112.39497,63.959115 -12.824727,2.959554 -0.09249,0 -0.09248,0.06166 -3.668615,2.312154 -0.154142,0.09243 -0.09248,0.154141 -4.069383,8.262085 c 0.549744,-0.113841 1.089245,-0.228791 1.633916,-0.36994 l 3.514468,-7.152255 3.452813,-2.127179 11.19081,-2.589609 c 0.41911,-0.528399 0.81899,-1.056429 1.20232,-1.603088 z"
         id="path5389-4-9"
         style="font-size:medium;font-style:normal;font-variant:normal;font-weight:normal;font-stretch:normal;text-indent:0;text-align:start;text-decoration:none;line-height:normal;letter-spacing:normal;word-spacing:normal;text-transform:none;direction:ltr;block-progression:tb;writing-mode:lr-tb;text-anchor:start;baseline-shift:baseline;color:#000000;fill:#d38484;fill-opacity:1;stroke:none;stroke-width:2;marker:none;visibility:visible;display:inline;overflow:visible;enable-background:accumulate;font-family:Sans;-inkscape-font-specification:Sans" />
      <path
         d="m 90.307589,28.181648 0.04252,0.42307 0.338465,0.211536 1.226942,0 0.676871,-0.71922 0.507668,-0.42307 0.338465,0.338456 0.08463,0.930754 0.253834,1.269209 1.353859,1.480747 1.184597,0.465376 1.523004,-0.169227 0.634644,-0.211536 0.380751,0.25384 0.338464,0.719222 0.803847,0.888448 1.7769,0.719216 0.54995,0.380768 0.33846,0.592293 -0.12691,0.761531 -1.0154,1.946117 -0.1692,0.549995 0.12692,0.211536 -0.21155,0.338453 -1.22688,1.269211 -0.126921,0.465376 0.338461,0.803835 0.25384,0.634602 0.0425,-0.126917 1.77689,-0.465382 0.71922,1.184598 1.31151,0.126923 0.12692,0.380762 1.39615,1.184598 0.38075,0.888448 1.01539,0.846139 -0.93076,1.015365 0.0846,0.465381 0.29612,0.50768 1.14231,0.338459 0.5923,0.719216 -0.0425,1.015371 0.16926,1.734586 -2.5384,1.565361 -0.80385,1.819199 -0.0846,0.380763 -0.0846,-0.04229 -0.25383,-0.634608 -0.42304,-0.04229 -1.01539,-0.338459 -1.52306,1.649974 -0.71922,1.353824 -0.46538,1.015371 -0.63459,0.846138 -0.169198,0.846139 0.08457,0.380763 -0.253834,0.465375 -0.04252,0.507686 0.761502,1.057675 0.16926,0.549995 0.88842,1.861503 -0.33846,0.634609 -0.29612,0.676912 -0.33847,0.465376 -0.33846,0.296149 -1.057684,-0.08461 -1.311515,0.126922 -0.930763,0.29615 -0.423037,-0.04229 -0.930764,-0.930752 -0.97305,-1.396134 -0.634643,-0.676912 -0.253834,-0.592299 -0.803846,-0.253839 -1.142253,-0.761526 -0.761561,-0.761531 -0.676871,-0.507679 -1.015394,-0.29615 -0.803847,-0.04229 -0.169203,-1.184598 0.04252,-1.396127 -0.634585,-0.973062 1.184598,-3.469173 -0.507668,-0.380763 -0.592299,0.211531 -0.930763,0.803834 -0.507727,0.973062 -0.29612,0.888448 -1.523062,0.719216 -2.326851,0.126922 -2.453825,-0.507685 -0.338465,-0.25384 -0.126917,-0.296149 0,-0.29615 0.211548,-0.465376 0.507668,-0.549989 0.169203,-0.846144 -0.380751,-0.761525 -0.253834,-0.29615 0.169261,-0.676912 0.380751,-0.888448 0.126917,-0.465376 -1.565348,-1.649973 -1.184598,-0.423067 -1.184597,-0.169232 -0.846133,-0.25384 -0.550012,0.04229 -0.423096,0.380763 -0.380751,0.296149 -0.253834,-0.423072 -0.29612,-2.707648 -0.338465,-0.423072 -1.480776,-0.592299 -2.073016,-0.380762 -0.465382,-0.54999 -0.211548,-1.226901 -0.04252,-1.480747 -0.550012,-1.438437 -0.296121,-0.380763 -0.550012,-0.676912 -1.099967,0.126917 -1.353859,0.676912 -0.803846,0.126923 -0.296121,0.08461 -0.930763,-0.888449 -1.015336,-1.353824 -0.76156,-1.396127 -0.169204,-0.761526 0.380751,-0.846144 -0.253834,-0.719216 -0.380751,-1.269211 -0.04252,-0.973061 5.880701,-2.83457 3.511448,-1.396132 1.607693,-0.380763 0.211548,1.776895 0.21149,0.592298 0.338464,0.423072 0.507727,0.08461 0.592298,-0.338459 0.846133,-0.380761 1.26917,0.296148 0.888477,0.507686 0.296121,0.465376 0.592298,0.507685 0.888478,0.169227 1.819182,-0.634603 1.776896,-1.057675 0.550013,-0.803835 0.253834,-0.761526 0.930763,0.592298 0.888419,0.169228 0.380751,-0.169228 -0.126917,-1.26921 0.76156,-0.592299 0.803847,-0.211535 0.29612,0.549991 0.67693,0.592299 0.592298,0.04231 1.64998,-1.26921 0.338406,0.296149 0.296179,0.507684 0,0.42307 z"
         id="polyF1S20P1-59"
         style="fill:#a6dd8b;fill-opacity:1;stroke:none" />
      <path
         d="m 107.84375,19.59375 c -3.51892,2.690948 -7.09332,5.565289 -10.46875,8.625 -8.469663,7.677465 -15.647727,16.395829 -16.90625,25.625 -0.863461,6.332051 1.509423,12.474714 0.5,18.53125 -0.419585,2.51751 -1.504916,4.261474 -3.15625,5.5 0.32138,0.06318 0.646011,0.102368 0.96875,0.15625 C 80.299596,76.702015 81.346627,74.920238 81.75,72.5 82.806133,66.163202 80.454386,60.001171 81.28125,53.9375 c 1.212525,-8.89185 8.213488,-17.531497 16.625,-25.15625 3.37677,-3.06093 6.96896,-5.966649 10.5,-8.65625 -0.1855,-0.183147 -0.37389,-0.353184 -0.5625,-0.53125 z m 1.3125,16.71875 c -2.5069,-0.03681 -5.41228,0.944703 -8.59375,3.28125 -5.012877,3.681571 -8.717767,9.150716 -9.625,14.09375 -0.453616,2.471517 -0.194414,4.817525 1,6.71875 1.188747,1.892205 3.314727,3.294173 6.4375,3.90625 0.0074,0.0015 0.02717,-0.0071 0.03125,0 5.80913,1.605671 12.05589,-0.772304 16.15625,-5 0.41837,-0.431361 0.81651,-0.875111 1.1875,-1.34375 0.52313,-1.205558 0.96652,-2.40945 1.34375,-3.65625 -0.74953,1.616444 -1.80896,3.112816 -3.09375,4.4375 -3.92831,4.050303 -9.92985,6.339845 -15.40625,4.8125 l -0.03125,0 C 95.572607,62.985452 93.687898,61.691882 92.625,60 c -1.062898,-1.691882 -1.33411,-3.825069 -0.90625,-6.15625 0.855719,-4.662363 4.454213,-10.025713 9.3125,-13.59375 3.08127,-2.262953 5.79479,-3.160379 8.09375,-3.125 0.76632,0.01179 1.4854,0.108437 2.15625,0.3125 2.6834,0.816252 4.65866,3.081239 5.6875,5.96875 l 0,0.03125 0.0312,0.03125 c 0.84799,1.689212 1.25769,3.3874 1.3125,5.0625 0.13595,-1.115752 0.22426,-2.221562 0.25,-3.34375 -0.2121,-0.692858 -0.5003,-1.374484 -0.84375,-2.0625 -0.003,-0.0088 0.003,-0.02243 0,-0.03125 -1.0959,-3.05564 -3.22398,-5.504789 -6.1875,-6.40625 -0.74302,-0.226016 -1.53937,-0.36273 -2.375,-0.375 z M 107.5,43 c -0.40759,0.0055 -0.80715,0.04707 -1.21875,0.09375 -1.6464,0.186721 -3.27143,0.680291 -4.40625,1.5625 -2.737776,2.12835 -3.037826,5.572381 -1.4375,7.59375 0.80016,1.010684 2.08891,1.651284 3.6875,1.5625 1.59859,-0.08878 3.49849,-0.876139 5.625,-2.625 2.29913,-1.89082 3.33554,-3.461202 3.40625,-4.8125 0.0354,-0.675649 -0.21964,-1.276587 -0.625,-1.75 -0.40536,-0.473413 -0.96962,-0.838879 -1.625,-1.09375 -0.65538,-0.254871 -1.39643,-0.393719 -2.1875,-0.46875 C 108.32321,43.024985 107.90759,42.994479 107.5,43 z m 0.0312,0.8125 c 1.14542,-0.01384 2.24162,0.137363 3.09375,0.46875 0.56809,0.220924 1.02201,0.504496 1.3125,0.84375 0.29049,0.339254 0.43135,0.739084 0.40625,1.21875 -0.0502,0.959332 -0.87458,2.393686 -3.09375,4.21875 -2.03663,1.674939 -3.78562,2.361377 -5.15625,2.4375 -1.37063,0.07612 -2.38494,-0.433652 -3.03125,-1.25 -1.292611,-1.632696 -1.120928,-4.577001 1.3125,-6.46875 0.95916,-0.745651 2.46117,-1.231729 4,-1.40625 0.38471,-0.04363 0.77444,-0.05789 1.15625,-0.0625 z"
         id="path34845"
         style="font-size:medium;font-style:normal;font-variant:normal;font-weight:normal;font-stretch:normal;text-indent:0;text-align:start;text-decoration:none;line-height:normal;letter-spacing:normal;word-spacing:normal;text-transform:none;direction:ltr;block-progression:tb;writing-mode:lr-tb;text-anchor:start;baseline-shift:baseline;opacity:0.38699999;color:#000000;fill:#6d7f42;fill-opacity:1;stroke:none;stroke-width:0.80000001;marker:none;visibility:visible;display:inline;overflow:visible;enable-background:accumulate;font-family:Sans;-inkscape-font-specification:Sans" />
      <path
         d="M 96.9375,12.65625 93.625,22.625 77.96875,35.34375 69.09375,31.375 68.8125,31.25 68.5,31.40625 62.4375,34.375 l -0.0625,0 -11.28125,2.65625 c -0.109761,0.498332 -0.194059,0.99812 -0.28125,1.5 L 62.75,35.75 62.84375,35.71875 62.90625,35.6875 68.84375,32.78125 85.5,40.25 l 0.0625,0.03125 0.03125,0 0.03125,0 8.3125,18.125 -0.6875,11.5625 -0.03125,0.28125 0.21875,0.21875 4.65625,5.1875 c 0.451655,-0.197055 0.899237,-0.407463 1.34375,-0.625 l -4.75,-5.28125 0.65625,-11.4375 0,-0.1875 -0.0625,-0.15625 -7.875,-17.09375 12.28125,3.96875 0.21875,0.0625 0.21875,-0.0625 10.71875,-3.8125 L 118.5,42.375 c -0.0284,-0.482245 -0.0762,-0.956576 -0.125,-1.4375 L 110.90625,39.625 110.75,39.59375 110.5625,39.65625 99.90625,43.4375 86.09375,39 l 0,-0.03125 -6.71875,-3 15.28125,-12.375 0.15625,-0.125 0.0625,-0.1875 3.375,-10.09375 c -0.431801,-0.191418 -0.874714,-0.358611 -1.3125,-0.53125 z"
         id="path34863"
         style="font-size:medium;font-style:normal;font-variant:normal;font-weight:normal;font-stretch:normal;text-indent:0;text-align:start;text-decoration:none;line-height:normal;letter-spacing:normal;word-spacing:normal;text-transform:none;direction:ltr;block-progression:tb;writing-mode:lr-tb;text-anchor:start;baseline-shift:baseline;color:#000000;fill:#d38484;fill-opacity:1;stroke:none;stroke-width:1.39999998;marker:none;visibility:visible;display:inline;overflow:visible;enable-background:accumulate;font-family:Sans;-inkscape-font-specification:Sans" />
      <path
         d="m 90.307589,28.181648 0.04252,0.42307 0.338465,0.211536 1.226942,0 0.676871,-0.71922 0.507668,-0.42307 0.338465,0.338456 0.08463,0.930754 0.253834,1.269209 1.353859,1.480747 1.184597,0.465376 1.523004,-0.169227 0.634644,-0.211536 0.380751,0.25384 0.338464,0.719222 0.803847,0.888448 1.7769,0.719216 0.54995,0.380768 0.33846,0.592293 -0.12691,0.761531 -1.0154,1.946117 -0.1692,0.549995 0.12692,0.211536 -0.21155,0.338453 -1.22688,1.269211 -0.126921,0.465376 0.338461,0.803835 0.25384,0.634602 0.0425,-0.126917 1.77689,-0.465382 0.71922,1.184598 1.31151,0.126923 0.12692,0.380762 1.39615,1.184598 0.38075,0.888448 1.01539,0.846139 -0.93076,1.015365 0.0846,0.465381 0.29612,0.50768 1.14231,0.338459 0.5923,0.719216 -0.0425,1.015371 0.16926,1.734586 -2.5384,1.565361 -0.80385,1.819199 -0.0846,0.380763 -0.0846,-0.04229 -0.25383,-0.634608 -0.42304,-0.04229 -1.01539,-0.338459 -1.52306,1.649974 -0.71922,1.353824 -0.46538,1.015371 -0.63459,0.846138 -0.169198,0.846139 0.08457,0.380763 -0.253834,0.465375 -0.04252,0.507686 0.761502,1.057675 0.16926,0.549995 0.88842,1.861503 -0.33846,0.634609 -0.29612,0.676912 -0.33847,0.465376 -0.33846,0.296149 -1.057684,-0.08461 -1.311515,0.126922 -0.930763,0.29615 -0.423037,-0.04229 -0.930764,-0.930752 -0.97305,-1.396134 -0.634643,-0.676912 -0.253834,-0.592299 -0.803846,-0.253839 -1.142253,-0.761526 -0.761561,-0.761531 -0.676871,-0.507679 -1.015394,-0.29615 -0.803847,-0.04229 -0.169203,-1.184598 0.04252,-1.396127 -0.634585,-0.973062 1.184598,-3.469173 -0.507668,-0.380763 -0.592299,0.211531 -0.930763,0.803834 -0.507727,0.973062 -0.29612,0.888448 -1.523062,0.719216 -2.326851,0.126922 -2.453825,-0.507685 -0.338465,-0.25384 -0.126917,-0.296149 0,-0.29615 0.211548,-0.465376 0.507668,-0.549989 0.169203,-0.846144 -0.380751,-0.761525 -0.253834,-0.29615 0.169261,-0.676912 0.380751,-0.888448 0.126917,-0.465376 -1.565348,-1.649973 -1.184598,-0.423067 -1.184597,-0.169232 -0.846133,-0.25384 -0.550012,0.04229 -0.423096,0.380763 -0.380751,0.296149 -0.253834,-0.423072 -0.29612,-2.707648 -0.338465,-0.423072 -1.480776,-0.592299 -2.073016,-0.380762 -0.465382,-0.54999 -0.211548,-1.226901 -0.04252,-1.480747 -0.550012,-1.438437 -0.296121,-0.380763 -0.550012,-0.676912 -1.099967,0.126917 -1.353859,0.676912 -0.803846,0.126923 -0.296121,0.08461 -0.930763,-0.888449 -1.015336,-1.353824 -0.76156,-1.396127 -0.169204,-0.761526 0.380751,-0.846144 -0.253834,-0.719216 -0.380751,-1.269211 -0.04252,-0.973061 5.880701,-2.83457 3.511448,-1.396132 1.607693,-0.380763 0.211548,1.776895 0.21149,0.592298 0.338464,0.423072 0.507727,0.08461 0.592298,-0.338459 0.846133,-0.380761 1.26917,0.296148 0.888477,0.507686 0.296121,0.465376 0.592298,0.507685 0.888478,0.169227 1.819182,-0.634603 1.776896,-1.057675 0.550013,-0.803835 0.253834,-0.761526 0.930763,0.592298 0.888419,0.169228 0.380751,-0.169228 -0.126917,-1.26921 0.76156,-0.592299 0.803847,-0.211535 0.29612,0.549991 0.67693,0.592299 0.592298,0.04231 1.64998,-1.26921 0.338406,0.296149 0.296179,0.507684 0,0.42307 z"
         id="path3968"
         style="fill:#a6dd8b;fill-opacity:0.51599995;stroke:none" />
      <path
         d="m 66.15625,39.71875 -1.09375,0.5625 -0.8125,0.125 -0.03125,0 c -1.210966,2.329746 -4.249158,4.305623 -6.3125,8.125 -2.14754,3.975234 -0.205577,7.508515 -0.59375,9.40625 -0.194086,0.948867 -0.465293,1.78477 -1.15625,2.75 -0.265753,0.371242 -0.620631,0.765719 -1.03125,1.1875 0.175926,0.294036 0.34569,0.585219 0.53125,0.875 0.527099,-0.522019 0.971931,-1.024244 1.3125,-1.5 0.778443,-1.087443 0.884032,-2.037211 1.09375,-3.0625 0.419436,-2.050577 -1.351225,-5.355844 0.71875,-9.1875 2.125414,-3.934278 5.583211,-5.769374 6.71875,-8.0625 0.231499,-0.467492 0.438284,-0.86029 0.65625,-1.21875 z"
         id="path4015"
         style="font-size:medium;font-style:normal;font-variant:normal;font-weight:normal;font-stretch:normal;text-indent:0;text-align:start;text-decoration:none;line-height:normal;letter-spacing:normal;word-spacing:normal;text-transform:none;direction:ltr;block-progression:tb;writing-mode:lr-tb;text-anchor:start;baseline-shift:baseline;color:#000000;fill:#aac3e7;fill-opacity:1;stroke:none;stroke-width:1px;marker:none;visibility:visible;display:inline;overflow:visible;enable-background:accumulate;font-family:Sans;-inkscape-font-specification:Sans" />
    </g>
    <g
       id="g4087">
      <g
         transform="matrix(0.51091006,0,0,0.51091006,-4.59819,0.73188)"
         id="layer5-7">
        <path
           d="m 48.01,227.46 -4.807,4.55 c -5.007,-5.31 -10.24,-10.7 -15.08,-16.13 l 4.491,-4.07 c 6.829,6.53 8.872,8.53 15.396,15.65 z"
           id="rect5757-8-7-7-9-9"
           style="fill:#f7dd84;fill-opacity:1;stroke-width:0.25;stroke-linejoin:bevel" />
        <path
           d="m 84.4375,10.25 c -8.735923,0 -17.457624,3.334411 -24.125,10 -13.329643,13.331173 -13.329643,34.946497 0,48.28125 13.334753,13.329643 34.951607,13.329643 48.28125,0 13.33475,-13.334753 13.33475,-34.950077 0,-48.28125 -6.66482,-6.665589 -15.420327,-10 -24.15625,-10 z m 5.25,16.71875 L 90,27.25 l 0.3125,0.5 0,0.4375 0.03125,0.40625 0.34375,0.21875 1.21875,0 0.6875,-0.71875 0.5,-0.40625 0.34375,0.3125 0.09375,0.9375 0.25,1.28125 1.34375,1.46875 1.1875,0.46875 L 97.84375,32 l 0.625,-0.21875 0.375,0.25 0.34375,0.71875 0.8125,0.875 1.78125,0.71875 0.53125,0.40625 0.34375,0.59375 -0.125,0.75 -1,1.9375 -0.1875,0.5625 0.125,0.21875 -0.21875,0.3125 -1.21875,1.28125 -0.125,0.46875 0.34375,0.8125 0.25,0.625 0.0312,-0.125 1.78125,-0.46875 0.71875,1.1875 1.3125,0.125 0.125,0.375 1.40625,1.1875 0.375,0.90625 1.03125,0.84375 -0.9375,1 0.0937,0.46875 0.28125,0.5 1.15625,0.34375 0.59375,0.71875 -0.0625,1.03125 0.1875,1.71875 -2.5625,1.5625 -0.78125,1.8125 -0.0937,0.40625 -0.0937,-0.0625 -0.25,-0.625 -0.40625,-0.03125 -1.03125,-0.34375 -1.53125,1.65625 -0.71875,1.34375 -0.4375,1 -0.65625,0.84375 -0.15625,0.84375 0.09375,0.40625 -0.28125,0.46875 -0.03125,0.5 0.75,1.0625 0.1875,0.53125 0.875,1.875 L 101.125,66 100.84375,66.6875 100.5,67.15625 100.15625,67.4375 99.09375,67.34375 97.78125,67.5 96.875,67.78125 96.4375,67.75 95.5,66.8125 94.53125,65.40625 93.90625,64.75 l -0.25,-0.59375 -0.8125,-0.28125 -1.125,-0.75 -0.78125,-0.75 -0.6875,-0.53125 -1,-0.28125 -0.8125,-0.03125 -0.15625,-1.1875 0.03125,-1.40625 -0.625,-0.96875 1.1875,-3.46875 -0.5,-0.375 -0.59375,0.1875 -0.9375,0.8125 -0.5,0.96875 L 86.03125,57 84.5,57.71875 l -2.3125,0.125 -2.46875,-0.5 -0.3125,-0.28125 -0.125,-0.28125 0,-0.28125 0.1875,-0.46875 L 80,55.46875 80.15625,54.625 l -0.375,-0.75 -0.25,-0.3125 L 79.6875,52.875 80.0625,52 80.1875,51.53125 78.625,49.875 77.4375,49.46875 76.25,49.28125 l -0.84375,-0.25 -0.53125,0.0625 -0.4375,0.375 -0.375,0.28125 -0.25,-0.40625 L 73.5,46.625 73.1875,46.21875 71.6875,45.625 69.625,45.21875 69.15625,44.6875 68.9375,43.46875 l -0.03125,-1.5 -0.5625,-1.4375 -0.28125,-0.375 -0.5625,-0.6875 -1.09375,0.125 -1.34375,0.6875 -0.8125,0.125 L 63.9375,40.5 63.03125,39.59375 62,38.25 61.25,36.84375 61.0625,36.09375 61.46875,35.25 61.1875,34.53125 60.8125,33.25 l -0.03125,-0.96875 5.875,-2.84375 3.5,-1.375 1.625,-0.375 0.21875,1.75 0.1875,0.59375 0.34375,0.4375 0.5,0.09375 0.59375,-0.34375 0.875,-0.375 1.25,0.28125 0.90625,0.5 0.28125,0.46875 0.59375,0.5 0.875,0.1875 1.84375,-0.625 1.75,-1.0625 0.5625,-0.8125 0.25,-0.75 0.9375,0.59375 0.875,0.15625 0.40625,-0.15625 -0.125,-1.28125 0.75,-0.59375 0.8125,-0.21875 0.28125,0.5625 0.6875,0.59375 0.59375,0.03125 1.65625,-1.25 z"
           transform="matrix(1.9572917,0,0,1.9572917,8.9999989,-1.4325026)"
           id="path5604-9-13-6"
           style="fill:url(#radialGradient4101);fill-opacity:1;stroke-width:0.25;stroke-linejoin:bevel" />
        <path
           d="m 125.06,134.69 c -27.176,-27.18 -27.176,-71.251 0,-98.431 27.18,-27.18 71.25,-27.18 98.43,0 27.18,27.18 27.18,71.251 0,98.431 -27.18,27.18 -71.25,27.18 -98.43,0 z m 2.96,-2.96 c 26.09,26.1 67.41,27.08 93.5,0.99 26.1,-26.1 25.11,-67.416 -0.98,-93.509 -26.09,-26.092 -67.41,-27.077 -93.51,-0.984 -26.09,26.093 -25.11,67.413 0.99,93.503 z"
           id="path5604-26-3"
           style="fill:#2d3335;stroke-width:0.25;stroke-linejoin:bevel" />
        <path
           d="m 116.05,115.28 -5.75,4.09 c 3.3,6.21 7.56,12.05 12.8,17.28 5.23,5.24 11.07,9.5 17.28,12.8 l 4.09,-5.75 c -5.92,-3.04 -11.49,-7.01 -16.45,-11.97 -4.96,-4.96 -8.93,-10.53 -11.97,-16.45 z"
           id="path5604-9-1-8-8-1-2"
           style="fill:#4a475d;fill-opacity:1;stroke-width:0.25;stroke-linejoin:bevel" />
        <path
           d="m 124.82,134.93 c 1.73,1.73 3.08,3.67 4.12,5.72 l -26.21,26.21 c -2.05,-1.04 -3.988,-2.39 -5.718,-4.12 -1.729,-1.73 -3.084,-3.67 -4.121,-5.72 L 119.1,130.81 c 2.05,1.04 3.99,2.39 5.72,4.12 z"
           id="rect5757-5-4"
           style="fill:#4a475d;fill-opacity:1;stroke-width:0.25;stroke-linejoin:bevel" />
        <path
           d="M 116.27,159.23 50.199,225.3 c -3.984,-2.19 -5.832,-3 -9.29,-6.46 -3.458,-3.46 -4.267,-5.3 -6.459,-9.29 l 66.07,-66.07 c 5.06,3.75 12.12,10.4 15.75,15.75 z"
           id="rect5757-8-7-2-8"
           style="fill:#f7dd84;fill-opacity:1;stroke-width:0.25;stroke-linejoin:bevel" />
        <path
           d="m 105.78,154.12 c 3.46,3.46 7.43,6.66 8.52,11.02 l -64.101,64.1 C 43.682,224.08 35.644,216.45 30.513,209.55 l 64.1,-64.1 c 3.491,0.23 7.657,5.16 11.117,8.62 l 0.05,0.05 z"
           id="rect5757-8-6-0"
           style="fill:#4a475d;fill-opacity:1;stroke-width:0.25;stroke-linejoin:bevel" />
      </g>
      <g
         id="g3957"
         style="opacity:0.56521738">
        <path
           d="m 89.6875,26.96875 -1.65625,1.25 -0.59375,-0.03125 -0.6875,-0.59375 -0.28125,-0.5625 -0.8125,0.21875 -0.75,0.59375 0.125,1.28125 -0.40625,0.15625 -0.875,-0.15625 -0.9375,-0.59375 -0.25,0.75 -0.5625,0.8125 -1.75,1.0625 -1.84375,0.625 -0.875,-0.1875 -0.59375,-0.5 -0.28125,-0.46875 -0.5,-0.28125 0,18.90625 0.09375,0.03125 1.1875,0.1875 1.1875,0.40625 1.5625,1.65625 -0.125,0.46875 -0.375,0.875 -0.15625,0.6875 0.25,0.3125 0.375,0.75 L 80,55.46875 l -0.53125,0.5625 -0.1875,0.46875 0,0.28125 0.125,0.28125 0.3125,0.28125 2.46875,0.5 L 84.5,57.71875 86.03125,57 l 0.3125,-0.90625 0.5,-0.96875 0.9375,-0.8125 0.59375,-0.1875 0.5,0.375 -1.1875,3.46875 0.625,0.96875 -0.03125,1.40625 0.15625,1.1875 0.8125,0.03125 1,0.28125 0.6875,0.53125 0.78125,0.75 1.125,0.75 0.5625,0.1875 0,-36.09375 -0.3125,-0.28125 -0.5,0.40625 -0.6875,0.71875 -1.21875,0 -0.34375,-0.21875 -0.03125,-0.40625 0,-0.4375 L 90,27.25 89.6875,26.96875 z"
           id="rect3933"
           style="fill:#ffe936;fill-opacity:1;stroke:none" />
        <path
           d="m 71.78125,27.6875 -1.625,0.375 -3.5,1.375 -5.875,2.84375 0.03125,0.96875 0.375,1.28125 0.28125,0.71875 -0.40625,0.84375 0.1875,0.75 L 62,38.25 63.03125,39.59375 63.9375,40.5 64.25,40.40625 l 0.8125,-0.125 1.34375,-0.6875 1.09375,-0.125 0.5625,0.6875 0.28125,0.375 0.5625,1.4375 0.03125,1.5 0.21875,1.21875 0.46875,0.53125 2.0625,0.40625 1.5,0.59375 0.3125,0.40625 0.3125,2.71875 0.25,0.40625 0.375,-0.28125 0.4375,-0.375 0.53125,-0.0625 0.75,0.21875 0,-18.90625 L 75.75,30.125 74.5,29.84375 l -0.875,0.375 -0.59375,0.34375 -0.5,-0.09375 L 72.1875,30.03125 72,29.4375 l -0.21875,-1.75 z"
           id="path3946"
           style="fill:#000000;fill-opacity:1;stroke:none" />
        <path
           d="m 93.40625,27.96875 0,36.09375 0.25,0.09375 0.25,0.59375 0.625,0.65625 L 95.5,66.8125 96.4375,67.75 96.875,67.78125 97.78125,67.5 l 1.3125,-0.15625 1.0625,0.09375 L 100.5,67.15625 100.84375,66.6875 101.125,66 l 0.34375,-0.625 -0.875,-1.875 -0.1875,-0.53125 -0.75,-1.0625 0.03125,-0.5 0.28125,-0.46875 -0.09375,-0.40625 0.15625,-0.84375 0.65625,-0.84375 0.4375,-1 0.71875,-1.34375 1.53125,-1.65625 1.03125,0.34375 0.40625,0.03125 0.25,0.625 0.0937,0.0625 0.0937,-0.40625 0.78125,-1.8125 2.5625,-1.5625 -0.1875,-1.71875 0.0625,-1.03125 -0.59375,-0.71875 -1.15625,-0.34375 -0.28125,-0.5 -0.0937,-0.46875 0.9375,-1 L 106.25,45.5 l -0.375,-0.90625 -1.40625,-1.1875 -0.125,-0.375 -1.3125,-0.125 -0.71875,-1.1875 -1.78125,0.46875 -0.0312,0.125 -0.25,-0.625 -0.34375,-0.8125 0.125,-0.46875 1.21875,-1.28125 0.21875,-0.3125 -0.125,-0.21875 0.1875,-0.5625 1,-1.9375 0.125,-0.75 L 102.3125,34.75 101.78125,34.34375 100,33.625 99.1875,32.75 l -0.34375,-0.71875 -0.375,-0.25 L 97.84375,32 96.3125,32.15625 95.125,31.6875 93.78125,30.21875 93.53125,28.9375 93.4375,28 93.40625,27.96875 z"
           id="path3948"
           style="fill:#ff0f21;fill-opacity:1;stroke:none" />
      </g>
    </g>
  </g>
</svg>
